<!DOCTYPE svg PUBLIC "-//W3C//DTD SVG 1.1//EN" "http://www.w3.org/Graphics/SVG/1.1/DTD/svg11.dtd">
<!-- Uploaded to: SVG Repo, www.svgrepo.com, Transformed by: SVG Repo Mixer Tools -->
<svg height="800px" width="800px" version="1.1" id="_x32_" xmlns="http://www.w3.org/2000/svg" xmlns:xlink="http://www.w3.org/1999/xlink" viewBox="-102.4 -102.4 716.80 716.80" xml:space="preserve" fill="#000000" stroke="#000000" stroke-width="51.2">
<g id="SVGRepo_bgCarrier" stroke-width="0"/>
<g id="SVGRepo_tracerCarrier" stroke-linecap="round" stroke-linejoin="round"/>
<g id="SVGRepo_iconCarrier"> <style type="text/css"> .st0{fill:#000000;} </style> <g> <path class="st0" d="M50.047,0C22.404,0,0,22.4,0,50.047c0,27.646,22.404,50.046,50.047,50.046c27.642,0,50.046-22.4,50.046-50.046 C100.093,22.4,77.689,0,50.047,0z"/> <path class="st0" d="M256,0c-27.642,0-50.047,22.4-50.047,50.047c0,27.646,22.404,50.046,50.047,50.046 c27.642,0,50.047-22.4,50.047-50.046C306.047,22.4,283.642,0,256,0z"/> <path class="st0" d="M461.953,100.093c27.638,0,50.047-22.4,50.047-50.046C512,22.4,489.591,0,461.953,0 s-50.046,22.4-50.046,50.047C411.907,77.693,434.315,100.093,461.953,100.093z"/> <path class="st0" d="M50.047,205.953C22.404,205.953,0,228.353,0,256s22.404,50.047,50.047,50.047 c27.642,0,50.046-22.4,50.046-50.047S77.689,205.953,50.047,205.953z"/> <path class="st0" d="M256,205.953c-27.642,0-50.047,22.4-50.047,50.047s22.404,50.047,50.047,50.047 c27.642,0,50.047-22.4,50.047-50.047S283.642,205.953,256,205.953z"/> <path class="st0" d="M461.953,205.953c-27.638,0-50.046,22.4-50.046,50.047s22.408,50.047,50.046,50.047S512,283.647,512,256 S489.591,205.953,461.953,205.953z"/> <path class="st0" d="M50.047,411.907C22.404,411.907,0,434.307,0,461.953C0,489.6,22.404,512,50.047,512 c27.642,0,50.046-22.4,50.046-50.047C100.093,434.307,77.689,411.907,50.047,411.907z"/> <path class="st0" d="M256,411.907c-27.642,0-50.047,22.4-50.047,50.046C205.953,489.6,228.358,512,256,512 c27.642,0,50.047-22.4,50.047-50.047C306.047,434.307,283.642,411.907,256,411.907z"/> <path class="st0" d="M461.953,411.907c-27.638,0-50.046,22.4-50.046,50.046c0,27.647,22.408,50.047,50.046,50.047 S512,489.6,512,461.953C512,434.307,489.591,411.907,461.953,411.907z"/> </g> </g>
</svg>