<?xml version="1.0" encoding="iso-8859-1"?>
<!-- Uploaded to: SVG Repo, www.svgrepo.com, Generator: SVG Repo Mixer Tools -->
<svg fill="#000000" height="800px" width="800px" version="1.1" id="Layer_1" xmlns="http://www.w3.org/2000/svg" xmlns:xlink="http://www.w3.org/1999/xlink" 
	 viewBox="0 0 512.001 512.001" xml:space="preserve">
<g>
	<g>
		<path d="M408.232,291.133c-5.993,0-10.857,4.853-10.857,10.857c0,5.993,4.864,10.857,10.857,10.857
			c6.004,0,10.857-4.864,10.857-10.857C419.089,295.986,414.236,291.133,408.232,291.133z"/>
	</g>
</g>
<g>
	<g>
		<path d="M382.697,265.587c-6.004,0-10.857,4.853-10.857,10.857c0,5.993,4.853,10.857,10.857,10.857
			c5.993,0,10.857-4.864,10.857-10.857C393.554,270.44,388.69,265.587,382.697,265.587z"/>
	</g>
</g>
<g>
	<g>
		<path d="M382.697,316.668c-6.004,0-10.857,4.864-10.857,10.857c0,6.004,4.853,10.857,10.857,10.857
			c5.993,0,10.857-4.853,10.857-10.857C393.554,321.531,388.69,316.668,382.697,316.668z"/>
	</g>
</g>
<g>
	<g>
		<path d="M357.151,291.133c-6.004,0-10.857,4.853-10.857,10.857c0,5.993,4.853,10.857,10.857,10.857
			c5.993,0,10.857-4.864,10.857-10.857C368.008,295.986,363.144,291.133,357.151,291.133z"/>
	</g>
</g>
<g>
	<g>
		<path d="M154.849,291.133h-14.689v-14.689c0-5.996-4.861-10.857-10.857-10.857s-10.857,4.861-10.857,10.857v14.689h-14.678
			c-5.996,0-10.857,4.861-10.857,10.857c0,5.995,4.861,10.857,10.857,10.857h14.678v14.678c0,5.996,4.86,10.857,10.857,10.857
			s10.857-4.861,10.857-10.857v-14.678h14.689c5.996,0,10.857-4.862,10.857-10.857C165.705,295.993,160.845,291.133,154.849,291.133
			z"/>
	</g>
</g>
<g>
	<g>
		<path d="M235.687,278.105c-5.996,0-10.857,4.86-10.857,10.857v26.045c0,5.996,4.861,10.857,10.857,10.857
			c5.996,0,10.857-4.861,10.857-10.857v-26.045C246.544,282.965,241.683,278.105,235.687,278.105z"/>
	</g>
</g>
<g>
	<g>
		<path d="M276.313,278.105c-5.996,0-10.857,4.86-10.857,10.857v26.045c0,5.996,4.861,10.857,10.857,10.857
			c5.996,0,10.857-4.861,10.857-10.857v-26.045C287.169,282.965,282.309,278.105,276.313,278.105z"/>
	</g>
</g>
<g>
	<g>
		<path d="M129.303,221.52c-44.366,0-80.459,36.098-80.459,80.47c0,44.365,36.094,80.458,80.459,80.458
			c44.371,0,80.47-36.093,80.47-80.458C209.772,257.618,173.674,221.52,129.303,221.52z M129.303,360.734
			c-32.392,0-58.745-26.352-58.745-58.744c0-32.398,26.352-58.756,58.745-58.756c32.397,0,58.756,26.358,58.756,58.756
			C188.059,334.381,161.701,360.734,129.303,360.734z"/>
	</g>
</g>
<g>
	<g>
		<path d="M382.697,221.52c-44.371,0-80.47,36.098-80.47,80.47c0,44.365,36.098,80.458,80.47,80.458
			c44.365,0,80.459-36.093,80.459-80.458C463.156,257.618,427.062,221.52,382.697,221.52z M382.697,360.734
			c-32.398,0-58.756-26.352-58.756-58.744c0-32.398,26.358-58.756,58.756-58.756c32.392,0,58.745,26.358,58.745,58.756
			C441.443,334.381,415.09,360.734,382.697,360.734z"/>
	</g>
</g>
<g>
	<g>
		<path d="M336.068,172.676h-3.8c-5.996,0-10.857,4.861-10.857,10.857c0,5.996,4.861,10.857,10.857,10.857h3.8
			c5.996,0,10.857-4.861,10.857-10.857C346.924,177.536,342.064,172.676,336.068,172.676z"/>
	</g>
</g>
<g>
	<g>
		<path d="M382.697,172.676h-14.689c-5.996,0-10.857,4.861-10.857,10.857c0,5.995,4.861,10.857,10.857,10.857h14.689
			c59.325,0,107.589,48.27,107.589,107.6c0,59.325-48.264,107.589-107.589,107.589c-29.617,0-57.216-11.783-77.711-33.176
			c-2.048-2.138-4.88-3.346-7.84-3.346h-82.293c-2.961,0-5.792,1.208-7.84,3.346c-20.495,21.393-48.094,33.176-77.711,33.176
			c-59.325,0-107.589-48.264-107.589-107.589c0-59.331,48.264-107.6,107.589-107.6h167.41c5.996,0,10.857-4.862,10.857-10.857
			c0-5.996-4.86-10.857-10.857-10.857h-3.257v-27.782c0-5.996-4.86-10.857-10.857-10.857h-15.742V91.566
			c0-5.996-4.861-10.857-10.857-10.857c-5.996,0-10.857,4.861-10.857,10.857v42.471h-15.742c-5.996,0-10.857,4.86-10.857,10.857
			v27.782h-89.242C58.005,172.676,0,230.685,0,301.989c0,71.298,58.005,129.303,129.303,129.303
			c34.018,0,65.818-12.932,90.07-36.522h73.255c24.251,23.589,56.051,36.522,90.07,36.522c71.298,0,129.303-58.005,129.303-129.303
			C512,230.685,453.995,172.676,382.697,172.676z M240.258,155.75h31.484v14.939h-31.484V155.75z"/>
	</g>
</g>
</svg>